<?xml version="1.0" encoding="UTF-8"?>
<svg id="Layer_1" data-name="Layer 1" xmlns="http://www.w3.org/2000/svg" version="1.1" viewBox="0 0 250 114">
  <defs>
    <style>
      .cls-1 {
        fill: #000;
        stroke-width: 0px;
      }
    </style>
  </defs>
  <path class="cls-1" d="M16.3,27.6v8h.4c.7-1.1,1.6-2.2,2.8-3.4,1.2-1.2,2.6-2.2,4.2-3.1,1.7-.9,3.6-1.7,5.7-2.3,2.1-.6,4.5-.9,7.1-.9,4.1,0,7.8.8,11.2,2.3,3.4,1.6,6.4,3.7,8.8,6.4,2.5,2.7,4.4,5.9,5.7,9.6,1.4,3.7,2,7.6,2,11.8s-.7,8.2-2,11.9c-1.3,3.7-3.2,6.9-5.6,9.7-2.4,2.7-5.4,4.9-8.8,6.6-3.5,1.6-7.4,2.4-11.8,2.4s-7.8-.8-11.2-2.5c-3.4-1.7-6-3.9-7.8-6.8h-.2v36.3H2.5V27.6h13.7ZM49.7,56c0-2.2-.3-4.4-1-6.6-.7-2.2-1.7-4.2-3-5.9-1.4-1.7-3.1-3.2-5.1-4.2-2.1-1.1-4.5-1.6-7.3-1.6s-5,.6-7,1.7c-2.1,1.1-3.8,2.5-5.3,4.3-1.5,1.8-2.6,3.7-3.3,6-.8,2.2-1.1,4.5-1.1,6.7s.4,4.4,1.1,6.6c.8,2.2,1.9,4.2,3.3,5.9,1.5,1.8,3.2,3.2,5.3,4.2,2.1,1.1,4.4,1.6,7,1.6s5.2-.6,7.3-1.7c2.1-1.1,3.8-2.5,5.1-4.3,1.4-1.8,2.4-3.7,3-6,.7-2.2,1-4.5,1-6.7Z"/>
  <path class="cls-1" d="M189.3,24.9v63.5c0,3.4-.3,6.7-.8,9.7-.6,3.1-1.6,5.7-3.2,8-1.6,2.3-3.7,4.1-6.3,5.4-2.7,1.4-6.1,2-10.4,2s-2.4,0-3.6-.2c-1.2-.2-2.1-.3-2.9-.5l1.2-12.2c.6.2,1.3.3,2,.4.7,0,1.4.1,1.9.1,1.7,0,3-.3,4.1-1,1-.6,1.8-1.5,2.4-2.6.6-1.1.9-2.4,1.1-3.9.2-1.5.2-3,.2-4.7V24.9h14.3Z"/>
  <path class="cls-1" d="M238.2,42.9c-1.3-1.7-3-3.1-5.3-4.4s-4.7-1.9-7.3-1.9-4.4.5-6.3,1.4c-1.9,1-2.9,2.5-2.9,4.8s1.1,3.8,3.2,4.7c2.1.9,5.2,1.9,9.3,2.8,2.1.5,4.3,1.1,6.5,1.9s4.2,1.8,6,3.2c1.8,1.3,3.2,2.9,4.4,4.9,1.1,2,1.7,4.3,1.7,7.1s-.7,6.5-2,8.9c-1.3,2.4-3.1,4.4-5.3,5.9s-4.7,2.6-7.6,3.3c-2.9.7-5.9,1-9,1-4.5,0-8.8-.8-13-2.4-4.2-1.6-7.7-4-10.5-7l9.4-8.8c1.6,2.1,3.7,3.8,6.2,5.1,2.5,1.4,5.4,2,8.5,2s2.1-.1,3.2-.4c1.1-.2,2.1-.6,3-1.1.9-.5,1.6-1.2,2.2-2.1.6-.9.8-1.9.8-3.2,0-2.4-1.1-4.1-3.3-5.1-2.2-1-5.5-2.1-9.9-3.1-2.1-.5-4.2-1.1-6.3-1.9-2-.8-3.8-1.8-5.4-3-1.6-1.2-2.9-2.8-3.8-4.6-1-1.8-1.4-4.1-1.4-6.8s.7-5.9,2-8.2c1.3-2.3,3-4.2,5.2-5.7,2.1-1.5,4.6-2.6,7.3-3.3,2.7-.7,5.5-1.1,8.4-1.1,4.1,0,8.2.7,12.1,2.1,3.9,1.4,7.1,3.6,9.4,6.6l-9.3,8.2Z"/>
  <path class="cls-1" d="M153.6,72.8l8.5-2.6,1.7,5.2-8.5,2.9,5.3,7.5-4.4,3.2-5.6-7.3-5.4,7.2-4.3-3.3,5.3-7.2-8.6-3.1,1.7-5.2,8.6,2.8v-8.9h5.8v8.9h0Z"/>
  <path class="cls-1" d="M124.1,45.8c-1.5-3.3-3.5-6.1-6.1-8.4-2.6-2.3-5.7-4-9.3-5.2-3.5-1.2-7.4-1.8-11.5-1.8s-3.2,0-5.1.2c-1.9.2-3.5.4-4.8.8l.8-18.3h34.5V.4h-48.1l-1.4,46.2c1.3-.6,2.7-1.2,4.4-1.8,1.6-.6,3.3-1.1,5-1.5,1.7-.4,3.5-.8,5.3-1,1.8-.2,3.5-.4,5.1-.4,2.3,0,4.6.3,6.8.8,2.2.5,4.2,1.4,6,2.7s3.2,3,4.4,5.2c1.1,2.1,1.7,4.9,1.7,8.1s-.4,4.8-1.3,6.9c-.8,2-2,3.7-3.4,5.1-1.4,1.4-3.1,2.4-5,3.1-1.9.7-3.9,1.1-6.1,1.1-3.8,0-7.1-1-9.9-3-2.8-2-4.8-4.7-6-8.1h-.2c0,0-10.4,9.8-10.4,9.8,2.1,3.4,4.8,6.3,8.1,8.6,4.9,3.3,10.8,5,17.9,5s8.2-.7,11.9-2c3.7-1.4,7-3.3,9.8-5.9,2.8-2.5,5-5.7,6.6-9.4,1.6-3.7,2.4-7.9,2.4-12.6,0-4.3-.7-8.1-2.2-11.4Z"/>
</svg>